<svg xmlns="http://www.w3.org/2000/svg" viewBox="0 0 800 500"><defs><linearGradient id="g" x1="0" x2="1"><stop stop-color="#172033"/><stop offset="1" stop-color="#334155"/></linearGradient></defs><rect width="800" height="500" rx="38" fill="#f8fafc"/><rect x="45" y="45" width="710" height="410" rx="30" fill="url(#g)"/><rect x="102" y="105" width="265" height="292" rx="20" fill="#fff"/><rect x="433" y="105" width="265" height="292" rx="20" fill="#fff"/><path d="M174 105h120v72H174zM505 105h120v72H505z" fill="#ef5b0c"/><text x="234" y="154" text-anchor="middle" font-family="Arial" font-size="29" font-weight="700" fill="#fff">AR</text><text x="565" y="154" text-anchor="middle" font-family="Arial" font-size="29" font-weight="700" fill="#fff">EN</text><path d="M145 224h180M145 260h150M145 296h180M145 332h120M476 224h180M476 260h145M476 296h180M476 332h118" stroke="#cbd5e1" stroke-width="14" stroke-linecap="round"/><circle cx="400" cy="250" r="38" fill="#ef5b0c"/><path d="m383 250 12 12 23-26" fill="none" stroke="#fff" stroke-width="9" stroke-linecap="round" stroke-linejoin="round"/></svg>
